<?xml version="1.0" encoding="utf-8"?>
<!-- Generator: Adobe Illustrator 28.3.0, SVG Export Plug-In . SVG Version: 6.00 Build 0)  -->
<svg version="1.1" id="Layer_1" xmlns="http://www.w3.org/2000/svg" xmlns:xlink="http://www.w3.org/1999/xlink" x="0px" y="0px"
	 viewBox="0 0 900 500" style="enable-background:new 0 0 900 500;" xml:space="preserve">
<style type="text/css">
	.st0{fill:#231F20;}
</style>
<rect x="444.3" y="117.4" class="st0" width="27.6" height="264.1"/>
<g>
	<rect x="519.3" y="197" class="st0" width="27.5" height="184.5"/>
	
		<ellipse transform="matrix(0.1602 -0.9871 0.9871 0.1602 313.4053 640.8294)" class="st0" cx="533.3" cy="136.2" rx="18.8" ry="18.8"/>
</g>
<polygon class="st0" points="740,197 701.7,197 622.3,266.6 622.1,117.4 594.6,117.4 594.6,381.5 622.1,381.5 622.1,296.3 
	703.7,381.5 741.9,381.5 644.6,282.8 "/>
<path class="st0" d="M257.5,360.2c-60.9,0-110.2-49.3-110.2-110.2c0-25.9,8.9-49.6,23.8-68.4L151,161.2
	c-20.1,24.1-32.2,55-32.2,88.8c0,76.6,62.1,138.7,138.7,138.7c33.2,0,63.6-11.7,87.5-31.1l-20.1-20.4
	C306.2,351.6,282.9,360.2,257.5,360.2z"/>
<path class="st0" d="M257.5,116.3c35.7,0,69.3,13.9,94.5,39.2c25.2,25.2,39.2,58.8,39.2,94.5c0,15.5-2.6,30.6-7.8,45
	c-5,13.9-12.2,26.7-21.4,38.3l-1.4,1.4l-3.4,3.5l3.5,3.5l34.4,34.8h-24.1L348.6,354l-16.3-16.5c5.8-4.9,11.1-10.5,15.8-16.5
	c16.1-20.5,24.6-45.1,24.6-71.1c0-30.8-12-59.7-33.7-81.5c-21.8-21.8-50.7-33.7-81.5-33.7c-25.6,0-49.8,8.2-70,23.7
	c-6.1,4.6-11.6,9.9-16.7,15.6l-13-13.2c4.8-5.4,10.1-10.4,15.7-15c11.6-9.4,24.7-16.8,38.7-21.8C226.7,119,241.9,116.3,257.5,116.3
	 M257.5,111.3c-33,0-63.3,11.5-87.1,30.8c-6.9,5.6-13.2,11.7-18.9,18.5c-0.2,0.2-0.3,0.4-0.5,0.6l20.1,20.4c0.2-0.2,0.3-0.4,0.5-0.7
	c5.5-6.9,11.9-13,18.9-18.4c18.6-14.2,41.8-22.7,67-22.7c60.9,0,110.2,49.3,110.2,110.2c0,25.7-8.8,49.3-23.5,68
	c-5.3,6.8-11.4,12.9-18.2,18.3c-0.4,0.3-0.7,0.5-1.1,0.8l20.1,20.4l23.7,24h38.2l-42.8-43.3l1.6-1.6c19-23.7,30.4-53.9,30.4-86.7
	C396.2,173.4,334.1,111.3,257.5,111.3L257.5,111.3z"/>
<g>
	<path d="M768,383.9c-1.8,0-3.5-0.3-5.1-1c-1.6-0.7-3-1.6-4.2-2.8s-2.1-2.6-2.8-4.2c-0.7-1.6-1-3.3-1-5.1s0.3-3.5,1-5.1
		c0.7-1.6,1.6-3,2.8-4.2s2.6-2.1,4.2-2.8c1.6-0.7,3.3-1,5.1-1c1.8,0,3.5,0.3,5.1,1c1.6,0.7,3,1.6,4.2,2.8s2.1,2.6,2.8,4.2
		c0.7,1.6,1,3.3,1,5.1s-0.3,3.5-1,5.1c-0.7,1.6-1.6,3-2.8,4.2s-2.6,2.1-4.2,2.8C771.5,383.6,769.8,383.9,768,383.9z M768,381.5
		c2,0,3.7-0.5,5.3-1.4c1.6-1,2.9-2.2,3.8-3.8s1.4-3.4,1.4-5.3s-0.5-3.7-1.4-5.3s-2.2-2.9-3.8-3.8c-1.6-1-3.4-1.4-5.3-1.4
		c-2,0-3.7,0.5-5.3,1.4c-1.6,1-2.9,2.2-3.8,3.8s-1.4,3.4-1.4,5.3s0.5,3.7,1.4,5.3s2.2,2.9,3.8,3.8C764.3,381,766.1,381.5,768,381.5z
		 M763.6,376.7v-12h5.8c0.6,0,1.2,0.1,1.8,0.4c0.6,0.3,1,0.7,1.4,1.3c0.4,0.6,0.6,1.2,0.6,2.1c0,0.8-0.2,1.5-0.6,2.1
		c-0.4,0.6-0.9,1-1.5,1.4s-1.2,0.5-1.8,0.5h-4.5v-1.6h3.9c0.6,0,1.1-0.2,1.5-0.6s0.7-1,0.7-1.7c0-0.8-0.2-1.3-0.7-1.6
		s-0.9-0.5-1.4-0.5h-3v10.4H763.6z M770.6,371.1l3,5.6h-2.3l-2.9-5.6H770.6z"/>
</g>
</svg>
