<?xml version="1.0" encoding="utf-8"?>
<!-- Generator: Adobe Illustrator 28.1.0, SVG Export Plug-In . SVG Version: 6.00 Build 0)  -->
<svg version="1.1" id="Layer_1" xmlns="http://www.w3.org/2000/svg" xmlns:xlink="http://www.w3.org/1999/xlink" x="0px" y="0px"
	 viewBox="0 0 106.7 214.9" style="enable-background:new 0 0 106.7 214.9;" xml:space="preserve">
<style type="text/css">
	.st0{fill:#808080;}
	.st1{fill:url(#SVGID_1_);}
	.st2{fill:url(#SVGID_00000098212005340094659220000006544915137706757276_);}
	.st3{fill:url(#SVGID_00000047043090392401707930000008035252526513995697_);}
	.st4{fill:url(#SVGID_00000070107091904754079570000004738334642789609911_);}
	.st5{fill:#1A1A1A;}
	.st6{stroke:#FFFFFF;stroke-width:0.2;stroke-miterlimit:10;}
	.st7{fill:url(#SVGID_00000054265247145310123410000008163904437617212800_);}
	.st8{fill:url(#SVGID_00000138543466074681783060000005441022354214112183_);}
	.st9{fill:url(#SVGID_00000016792490766462902480000003722960431892112010_);}
</style>
<g>
	<g id="Layer_2_00000108270712248454512550000014439783102837701008_">
		<g id="Layer_2-2">
			<g>
				<g>
					<g>
						<g>
							<path class="st0" d="M2.1,27.6c0-1.4,0.4-2.5-0.7-2.5S0,26.2,0,27.6v9.6c0,0.2,0.2,0.7,0.4,0.7C0.6,38.1,1,38.1,1,38.1h1.1
								L2.1,27.6L2.1,27.6z"/>
							<path class="st0" d="M0.5,67.2C0.3,67.3,0,67.8,0,68.3c0-0.2,0,13.2,0,13.2C0,82.9,0.4,84,1.4,84s0.7-1.1,0.7-2.5V67.1h-1
								C1.1,67.1,0.9,67,0.5,67.2L0.5,67.2z"/>
						</g>
						<g>
							
								<linearGradient id="SVGID_1_" gradientUnits="userSpaceOnUse" x1="1.024" y1="154.19" x2="1.024" y2="171.36" gradientTransform="matrix(1 0 0 -1 0 216)">
								<stop  offset="0" style="stop-color:#808080"/>
								<stop  offset="0.1" style="stop-color:#9C9C9C"/>
								<stop  offset="0.22" style="stop-color:#B6B6B6"/>
								<stop  offset="0.33" style="stop-color:#C6C6C6"/>
								<stop  offset="0.42" style="stop-color:#CCCCCC"/>
								<stop  offset="0.58" style="stop-color:#C9C9C9"/>
								<stop  offset="0.68" style="stop-color:#C0C0C0"/>
								<stop  offset="0.78" style="stop-color:#B0B0B0"/>
								<stop  offset="0.86" style="stop-color:#9B9B9B"/>
								<stop  offset="0.94" style="stop-color:#7F7F7F"/>
								<stop  offset="1" style="stop-color:#666666"/>
							</linearGradient>
							<path class="st1" d="M1.9,47.1c0-1.4,0.4-2.5-0.7-2.5s-1.1,1.1-1.1,2.5v13.8c0,0-0.1,0.4,0.1,0.7c0.2,0.2,0.5,0.2,0.5,0.2
								h1.1L1.9,47.1L1.9,47.1z"/>
							<path class="st0" d="M2.1,27.6c0-1.4,0.4-2.5-0.7-2.5S0,26.2,0,27.6v9.6c0,0.2,0.2,0.7,0.4,0.7C0.6,38.1,1,38.1,1,38.1h1.1
								L2.1,27.6L2.1,27.6z"/>
							
								<linearGradient id="SVGID_00000004527750645153964050000011341358620694013337_" gradientUnits="userSpaceOnUse" x1="1.019" y1="177.98" x2="1.019" y2="190.98" gradientTransform="matrix(1 0 0 -1 0 216)">
								<stop  offset="0" style="stop-color:#808080"/>
								<stop  offset="0.1" style="stop-color:#9C9C9C"/>
								<stop  offset="0.22" style="stop-color:#B6B6B6"/>
								<stop  offset="0.33" style="stop-color:#C6C6C6"/>
								<stop  offset="0.42" style="stop-color:#CCCCCC"/>
								<stop  offset="0.58" style="stop-color:#C9C9C9"/>
								<stop  offset="0.68" style="stop-color:#C0C0C0"/>
								<stop  offset="0.78" style="stop-color:#B0B0B0"/>
								<stop  offset="0.86" style="stop-color:#9B9B9B"/>
								<stop  offset="0.94" style="stop-color:#7F7F7F"/>
								<stop  offset="1" style="stop-color:#666666"/>
							</linearGradient>
							<path style="fill:url(#SVGID_00000004527750645153964050000011341358620694013337_);" d="M1.9,27.5c0-1.4,0.4-2.5-0.7-2.5
								s-1.1,1.1-1.1,2.5v9.6c0,0-0.1,0.4,0.1,0.7C0.4,38,0.7,38,0.7,38h1.1V27.5z"/>
							
								<linearGradient id="SVGID_00000062900167730009494040000003278548328560858807_" gradientUnits="userSpaceOnUse" x1="1.0223" y1="132.11" x2="1.0223" y2="149" gradientTransform="matrix(1 0 0 -1 0 216)">
								<stop  offset="0" style="stop-color:#808080"/>
								<stop  offset="0.1" style="stop-color:#9C9C9C"/>
								<stop  offset="0.22" style="stop-color:#B6B6B6"/>
								<stop  offset="0.33" style="stop-color:#C6C6C6"/>
								<stop  offset="0.42" style="stop-color:#CCCCCC"/>
								<stop  offset="0.58" style="stop-color:#C9C9C9"/>
								<stop  offset="0.68" style="stop-color:#C0C0C0"/>
								<stop  offset="0.78" style="stop-color:#B0B0B0"/>
								<stop  offset="0.86" style="stop-color:#9B9B9B"/>
								<stop  offset="0.94" style="stop-color:#7F7F7F"/>
								<stop  offset="1" style="stop-color:#666666"/>
							</linearGradient>
							<path style="fill:url(#SVGID_00000062900167730009494040000003278548328560858807_);" d="M0.3,67.4c-0.2,0.3-0.2,0.8-0.2,0.8
								v13.2c0,1.4,0,2.5,1.1,2.5s0.7-1.1,0.7-2.5V67h-1C0.9,67,0.5,67,0.3,67.4L0.3,67.4z"/>
						</g>
					</g>
					<g>
						<path class="st0" d="M106.2,46.4c0.2,0.1,0.5,0.6,0.5,1.1c0-0.2,0,19.1,0,19.1c0,1.4-0.4,2.5-1.4,2.5s-0.7-1.1-0.7-2.5V46.2h1
							C105.6,46.2,105.8,46.2,106.2,46.4L106.2,46.4z"/>
						
							<linearGradient id="SVGID_00000168079865263335197050000016585890272684620165_" gradientUnits="userSpaceOnUse" x1="470.7523" y1="147.02" x2="470.7523" y2="169.85" gradientTransform="matrix(-1 0 0 -1 576.4399 216)">
							<stop  offset="0" style="stop-color:#808080"/>
							<stop  offset="0.1" style="stop-color:#9C9C9C"/>
							<stop  offset="0.22" style="stop-color:#B6B6B6"/>
							<stop  offset="0.33" style="stop-color:#C6C6C6"/>
							<stop  offset="0.42" style="stop-color:#CCCCCC"/>
							<stop  offset="0.58" style="stop-color:#C9C9C9"/>
							<stop  offset="0.68" style="stop-color:#C0C0C0"/>
							<stop  offset="0.78" style="stop-color:#B0B0B0"/>
							<stop  offset="0.86" style="stop-color:#9B9B9B"/>
							<stop  offset="0.94" style="stop-color:#7F7F7F"/>
							<stop  offset="1" style="stop-color:#666666"/>
						</linearGradient>
						<path style="fill:url(#SVGID_00000168079865263335197050000016585890272684620165_);" d="M106.4,46.5c0.2,0.3,0.2,0.8,0.2,0.8
							v19.1c0,1.4-0.1,2.5-1.1,2.5s-0.7-1.1-0.7-2.5V46.1h1C105.8,46.1,106.2,46.1,106.4,46.5L106.4,46.5z"/>
					</g>
				</g>
				<g>
					<path class="st5" d="M89.5,0.5H17.2c-0.6,0-1.2,0-1.8,0.1h75.8C90.7,0.5,90.1,0.5,89.5,0.5z"/>
					<path class="st5" d="M105.2,198.5V17.2c0-7.7-3.7-13.7-10.2-15.8c3.2,1.4,6.1,4.3,7.4,6.4c-2.4-2.4-6.1-5.9-10.8-6.1H14.2
						c-3.8,0-6.5,2.7-9,4.9c0.4-0.8,0.9-1.6,1.5-2.4c-3.4,3-5.3,7.6-5.3,13.1v181.3c0,9.7,5.9,15.9,15.7,15.9h72.3
						C99.3,214.3,105.2,208.1,105.2,198.5L105.2,198.5z M103.7,198.5c0,8.8-5.3,14.4-14.2,14.4H17.2v0c-9,0-14.2-5.6-14.2-14.4V17.2
						C3,8.4,8.2,2,17.2,2h72.3c9,0,14.2,6.4,14.2,15.2V198.5z"/>
					<path class="st6" d="M89.5,2H17.2C8.2,2,3,8.4,3,17.2v181.3c0,8.8,5.3,14.4,14.2,14.4v0h72.3c9,0,14.2-5.6,14.2-14.4V17.2
						C103.7,8.4,98.5,2,89.5,2z M101.7,197.9c0,7.9-4.5,12.6-12.5,12.6H17.5c-8,0-12.5-4.8-12.5-12.6V17.5C5,9.6,9.5,4.1,17.5,4.1
						h71.7c8,0,12.5,5.6,12.5,13.4V197.9z"/>
					
						<linearGradient id="SVGID_00000132079702769703324330000001368162032945815229_" gradientUnits="userSpaceOnUse" x1="11.0994" y1="219.75" x2="11.0994" y2="209.3" gradientTransform="matrix(1 0 0 -1 0 216)">
						<stop  offset="0.35" style="stop-color:#141119"/>
						<stop  offset="0.39" style="stop-color:#18151D"/>
						<stop  offset="0.45" style="stop-color:#26242B"/>
						<stop  offset="0.51" style="stop-color:#3E3B42"/>
						<stop  offset="0.57" style="stop-color:#5E5C62"/>
						<stop  offset="0.63" style="stop-color:#88878B"/>
						<stop  offset="0.7" style="stop-color:#BABABC"/>
						<stop  offset="0.76" style="stop-color:#F1F2F2"/>
					</linearGradient>
					<path style="fill:url(#SVGID_00000132079702769703324330000001368162032945815229_);" d="M14.2,0.6c-3.4,0-5.8,1.6-7.5,3.6
						c2.3-2,5.2-3.2,8.7-3.6H14.2z"/>
					
						<linearGradient id="SVGID_00000021823921143127520240000001235908228162143874_" gradientUnits="userSpaceOnUse" x1="93.1189" y1="219.75" x2="93.1189" y2="209.3" gradientTransform="matrix(1 0 0 -1 0 216)">
						<stop  offset="0.35" style="stop-color:#141119"/>
						<stop  offset="0.39" style="stop-color:#18151D"/>
						<stop  offset="0.45" style="stop-color:#26242B"/>
						<stop  offset="0.51" style="stop-color:#3E3B42"/>
						<stop  offset="0.57" style="stop-color:#5E5C62"/>
						<stop  offset="0.63" style="stop-color:#88878B"/>
						<stop  offset="0.7" style="stop-color:#BABABC"/>
						<stop  offset="0.76" style="stop-color:#F1F2F2"/>
					</linearGradient>
					<path style="fill:url(#SVGID_00000021823921143127520240000001235908228162143874_);" d="M91.6,0.6h-0.3
						C92.6,0.7,93.8,1,95,1.4C93.9,0.9,92.7,0.6,91.6,0.6z"/>
					<path class="st5" d="M14.2,1.6h77.3c4.7,0.1,8.4,3.7,10.8,6.1c-1.3-2-4.1-5-7.4-6.4c-1.2-0.4-2.4-0.7-3.7-0.8H15.4
						C11.9,0.9,9,2.2,6.8,4.1C6.1,4.9,5.6,5.7,5.2,6.5C7.8,4.4,10.4,1.6,14.2,1.6z"/>
					
						<linearGradient id="SVGID_00000087398599119241617380000000436753152462666163_" gradientUnits="userSpaceOnUse" x1="53.79" y1="219.75" x2="53.79" y2="209.3" gradientTransform="matrix(1 0 0 -1 0 216)">
						<stop  offset="0.35" style="stop-color:#141119"/>
						<stop  offset="0.39" style="stop-color:#18151D"/>
						<stop  offset="0.45" style="stop-color:#26242B"/>
						<stop  offset="0.51" style="stop-color:#3E3B42"/>
						<stop  offset="0.57" style="stop-color:#5E5C62"/>
						<stop  offset="0.63" style="stop-color:#88878B"/>
						<stop  offset="0.7" style="stop-color:#BABABC"/>
						<stop  offset="0.76" style="stop-color:#F1F2F2"/>
					</linearGradient>
					<path style="fill:url(#SVGID_00000087398599119241617380000000436753152462666163_);" d="M14.2,1.6h77.3
						c4.7,0.1,8.4,3.7,10.8,6.1c-1.3-2-4.1-5-7.4-6.4c-1.2-0.4-2.4-0.7-3.7-0.8H15.4C11.9,0.9,9,2.2,6.8,4.1
						C6.1,4.9,5.6,5.7,5.2,6.5C7.8,4.4,10.4,1.6,14.2,1.6z"/>
				</g>
			</g>
		</g>
	</g>
</g>
</svg>
