<?xml version="1.0" encoding="utf-8"?>
<!-- Generator: Adobe Illustrator 28.1.0, SVG Export Plug-In . SVG Version: 6.00 Build 0)  -->
<svg version="1.1" id="Layer_1" xmlns="http://www.w3.org/2000/svg" xmlns:xlink="http://www.w3.org/1999/xlink" x="0px" y="0px"
	 viewBox="0 0 577.7 434.3" style="enable-background:new 0 0 577.7 434.3;" xml:space="preserve">
<style type="text/css">
	.st0{fill:url(#SVGID_1_);}
	.st1{opacity:0.2;enable-background:new    ;}
	.st2{fill:#2B2B2B;}
	.st3{fill:url(#SVGID_00000167364408091862205500000008415559408486940819_);}
	.st4{fill:#FFFFFF;}
	.st5{fill:url(#SVGID_00000005253950345753268880000003955189075297180304_);}
	.st6{stroke:#000000;}
	.st7{fill:#151515;}
	.st8{fill:url(#SVGID_00000095329548111199478370000016901348266389778623_);}
	.st9{fill:url(#SVGID_00000048476965884079182180000006468366839154743956_);}
	.st10{fill:url(#SVGID_00000125591667600610959700000001482800896971699334_);}
</style>
<g>
	<g id="Layer_2_00000171687228048609775550000001239441923292373643_">
		<g id="Layer_2-2">
			<g>
				<g>
					<g>
						
							<linearGradient id="SVGID_1_" gradientUnits="userSpaceOnUse" x1="290.115" y1="43.5" x2="290.115" y2="1.13" gradientTransform="matrix(1 0 0 -1 0 436)">
							<stop  offset="6.000000e-02" style="stop-color:#000000"/>
							<stop  offset="7.000000e-02" style="stop-color:#131314"/>
							<stop  offset="8.000000e-02" style="stop-color:#333436"/>
							<stop  offset="0.1" style="stop-color:#46484B"/>
							<stop  offset="0.1" style="stop-color:#4E5053"/>
							<stop  offset="0.16" style="stop-color:#797A7D"/>
							<stop  offset="0.22" style="stop-color:#A1A2A4"/>
							<stop  offset="0.27" style="stop-color:#BEBFC1"/>
							<stop  offset="0.32" style="stop-color:#D0D0D2"/>
							<stop  offset="0.35" style="stop-color:#D7D7D9"/>
							<stop  offset="0.42" style="stop-color:#D4D4D5"/>
							<stop  offset="0.46" style="stop-color:#CACACC"/>
							<stop  offset="0.5" style="stop-color:#BABABC"/>
							<stop  offset="0.54" style="stop-color:#A4A4A5"/>
							<stop  offset="0.58" style="stop-color:#868688"/>
							<stop  offset="0.61" style="stop-color:#636363"/>
							<stop  offset="0.64" style="stop-color:#393939"/>
							<stop  offset="0.66" style="stop-color:#262626"/>
							<stop  offset="0.69" style="stop-color:#4E4E4F"/>
							<stop  offset="0.72" style="stop-color:#77797A"/>
							<stop  offset="0.75" style="stop-color:#919395"/>
							<stop  offset="0.76" style="stop-color:#9B9D9F"/>
							<stop  offset="0.77" style="stop-color:#A3A5A7"/>
							<stop  offset="0.81" style="stop-color:#C3C4C5"/>
							<stop  offset="0.85" style="stop-color:#DADADB"/>
							<stop  offset="0.88" style="stop-color:#E8E8E8"/>
							<stop  offset="0.91" style="stop-color:#EDEDED"/>
						</linearGradient>
						<polygon class="st0" points="186.7,431.8 393.5,431.8 372,424.1 207.1,424.1 						"/>
						<polygon class="st1" points="186.7,431.8 393.5,431.8 372,424.1 207.1,424.1 						"/>
						<g>
							<path class="st2" d="M186.3,432.2c-0.7,0.6-0.9,0.7-0.6,1.1c0.4,0.5,2.4,0.7,12.5,0.7h183.1c10.8,0,14,0.6,13.9-0.1
								c-0.2-1.4-1.1-0.7-1.1-1.4l-1-0.5L186.3,432.2L186.3,432.2z"/>
							
								<linearGradient id="SVGID_00000060742131371995790460000012015094249652357276_" gradientUnits="userSpaceOnUse" x1="289.974" y1="2.6611" x2="289.974" y2="4.2411" gradientTransform="matrix(1 0 0 -1 0 436)">
								<stop  offset="0" style="stop-color:#545454"/>
								<stop  offset="0.17" style="stop-color:#666767"/>
								<stop  offset="0.53" style="stop-color:#898A8C"/>
								<stop  offset="0.82" style="stop-color:#9FA0A3"/>
								<stop  offset="1" style="stop-color:#A7A9AC"/>
							</linearGradient>
							<path style="fill:url(#SVGID_00000060742131371995790460000012015094249652357276_);" d="M186.9,431.8l-1.5,1.1
								c0.1,0.7,2.6,0.3,12.7,0.3h183.1c10.4,0,12.8,0.4,13.2,0c0.3-0.3-0.6-0.8-1.2-1.4h-0.9L186.9,431.8L186.9,431.8z"/>
							<path class="st4" d="M198,431.1c17.6-0.3,10.4-0.4,27.9-0.5l64.4-0.2l64.4,0.2l28,0.5l-28-0.7l-64.4,0.2l-64.4-0.2
								C208.4,430.3,215.6,431.4,198,431.1z"/>
						</g>
					</g>
					<g>
						
							<linearGradient id="SVGID_00000065053451788823278030000013581095049026468242_" gradientUnits="userSpaceOnUse" x1="289.165" y1="73.96" x2="289.165" y2="-1.43" gradientTransform="matrix(1 0 0 -1 0 436)">
							<stop  offset="6.000000e-02" style="stop-color:#000000"/>
							<stop  offset="7.000000e-02" style="stop-color:#131314"/>
							<stop  offset="8.000000e-02" style="stop-color:#333436"/>
							<stop  offset="0.1" style="stop-color:#46484B"/>
							<stop  offset="0.1" style="stop-color:#4E5053"/>
							<stop  offset="0.1" style="stop-color:#4F5154"/>
							<stop  offset="0.14" style="stop-color:#787A7C"/>
							<stop  offset="0.18" style="stop-color:#9C9D9E"/>
							<stop  offset="0.22" style="stop-color:#B9BABB"/>
							<stop  offset="0.27" style="stop-color:#D0D0D1"/>
							<stop  offset="0.32" style="stop-color:#E0E0E0"/>
							<stop  offset="0.37" style="stop-color:#EAEAEA"/>
							<stop  offset="0.45" style="stop-color:#EDEDED"/>
							<stop  offset="0.54" style="stop-color:#E9E9E9"/>
							<stop  offset="0.62" style="stop-color:#DFDFE0"/>
							<stop  offset="0.67" style="stop-color:#D6D6D8"/>
							<stop  offset="0.7" style="stop-color:#D0D0D2"/>
							<stop  offset="0.75" style="stop-color:#C0C0C2"/>
							<stop  offset="0.8" style="stop-color:#A6A6A7"/>
							<stop  offset="0.86" style="stop-color:#828282"/>
							<stop  offset="0.88" style="stop-color:#757575"/>
							<stop  offset="0.88" style="stop-color:#6E6E6E"/>
							<stop  offset="0.88" style="stop-color:#5D5D5D"/>
							<stop  offset="0.89" style="stop-color:#404040"/>
							<stop  offset="0.89" style="stop-color:#191919"/>
							<stop  offset="0.9" style="stop-color:#000000"/>
							<stop  offset="0.97" style="stop-color:#CCCECE"/>
						</linearGradient>
						<path style="fill:url(#SVGID_00000065053451788823278030000013581095049026468242_);" d="M349.1,425.5
							c-5.6-19.2-7.7-38.6-7.7-58.1c-16.5-0.6-33-0.9-49.4-0.9c-1.2,0-2.4,0-3.6,0c-17.1,0-34.3,0.3-51.4,0.9
							c0.1,19.6-2.1,39-7.7,58.1c-0.1,1,0.4,1.9,1.2,1.9c39.1,1.5,78.2,1.5,117.3,0C348.7,427.4,349.2,426.5,349.1,425.5
							L349.1,425.5z"/>
						<path class="st1" d="M349.1,425.5c-5.6-19.2-7.7-38.6-7.7-58.1c-16.5-0.6-33-0.9-49.4-0.9c-1.2,0-2.4,0-3.6,0
							c-17.1,0-34.3,0.3-51.4,0.9c0.1,19.6-2.1,39-7.7,58.1c-0.1,1,0.4,1.9,1.2,1.9c39.1,1.5,78.2,1.5,117.3,0
							C348.7,427.4,349.2,426.5,349.1,425.5L349.1,425.5z"/>
					</g>
				</g>
				<g>
					<g>
						<g>
							<path class="st6" d="M559.6,1.8H18.1C6.5,1.8,1.8,7.5,1.8,19.1v334.9c0,11.6,4.8,16.9,16.4,16.9v0h541.5
								c11.6,0,16.4-5.2,16.4-16.9V19.1C576,7.5,571.2,1.8,559.6,1.8z M570,19.1v334.9c0,5.9-0.2,10.9-10.4,10.9H18.1v0
								c-10.2,0-10.4-5-10.4-10.9V19.1c0-5-0.4-11.4,10.4-11.4h541.5C570.4,7.8,570,14.2,570,19.1z"/>
						</g>
					</g>
					<g>
						<path class="st7" d="M288.5,7.6c-1.1,0-2-0.9-2-2s0.9-2,2-2s2,0.9,2,2S289.6,7.6,288.5,7.6z"/>
						
							<radialGradient id="SVGID_00000141448562947531171500000006395873802261200269_" cx="-590.9434" cy="-155.9608" r="0.43" gradientTransform="matrix(5.43 0 0 -5.43 3498.5298 -843.4301)" gradientUnits="userSpaceOnUse">
							<stop  offset="0" style="stop-color:#000000"/>
							<stop  offset="0.28" style="stop-color:#040404"/>
							<stop  offset="0.58" style="stop-color:#111111"/>
							<stop  offset="0.64" style="stop-color:#151515"/>
							<stop  offset="0.73" style="stop-color:#181818"/>
							<stop  offset="0.82" style="stop-color:#242122"/>
							<stop  offset="0.84" style="stop-color:#292627"/>
							<stop  offset="0.9" style="stop-color:#403D3E"/>
							<stop  offset="0.99" style="stop-color:#6C6A6B"/>
						</radialGradient>
						<path style="fill:url(#SVGID_00000141448562947531171500000006395873802261200269_);" d="M290.4,5.6c0,1-0.9,1.9-1.9,1.9
							s-1.9-0.8-1.9-1.9s0.9-1.9,1.9-1.9S290.4,4.5,290.4,5.6z"/>
						<g>
							
								<radialGradient id="SVGID_00000149379414441413872090000003942023583968318089_" cx="235.6289" cy="233.446" r="1.75" gradientTransform="matrix(1.05 -3.665191e-04 -3.141593e-04 -0.9 40.7629 215.9241)" gradientUnits="userSpaceOnUse">
								<stop  offset="2.000000e-02" style="stop-color:#808080"/>
								<stop  offset="1" style="stop-color:#0E0E0E"/>
							</radialGradient>
							<path style="fill:url(#SVGID_00000149379414441413872090000003942023583968318089_);" d="M289.8,5c0,0.9-0.8,1.7-1.7,1.7
								S286.3,6,286.3,5s0.8-1.7,1.7-1.7S289.8,4.1,289.8,5z"/>
						</g>
						<g>
							
								<radialGradient id="SVGID_00000147917648328812538980000004068331973567181967_" cx="237.5" cy="251.86" r="0.77" gradientTransform="matrix(1 0 0 -1 0 436)" gradientUnits="userSpaceOnUse">
								<stop  offset="2.000000e-02" style="stop-color:#808080"/>
								<stop  offset="1" style="stop-color:#0E0E0E"/>
							</radialGradient>
							<path style="fill:url(#SVGID_00000147917648328812538980000004068331973567181967_);" d="M289.9,6.3c0,0.4-0.3,0.7-0.8,0.7
								s-0.8-0.3-0.8-0.7s0.3-0.7,0.8-0.7S289.9,5.9,289.9,6.3z"/>
						</g>
					</g>
				</g>
			</g>
		</g>
	</g>
</g>
</svg>
