<?xml version="1.0" encoding="utf-8"?>
<!-- Generator: Adobe Illustrator 28.1.0, SVG Export Plug-In . SVG Version: 6.00 Build 0)  -->
<svg version="1.1" id="Layer_2_00000139997954459737607120000006807257436015978154_"
	 xmlns="http://www.w3.org/2000/svg" xmlns:xlink="http://www.w3.org/1999/xlink" x="0px" y="0px" viewBox="0 0 271.9 197.3"
	 style="enable-background:new 0 0 271.9 197.3;" xml:space="preserve">
<style type="text/css">
	.st0{stroke:#000000;}
	.st1{fill:#1A1A1A;}
	.st2{fill:url(#SVGID_1_);}
</style>
<g id="Layer_2-2">
	<g>
		<g>
			<g>
				<g>
					<path class="st0" d="M260.7,1.5H11.2c-6.4,0-9.7,3.9-9.7,10.3v173.6c0,6.4,3.3,10,9.7,10h249.5c6.4,0,9.7-3.6,9.7-10V11.7
						C270.4,5.4,267.1,1.5,260.7,1.5z M264.9,185.4c0,3.8-1.4,4.5-4.2,4.5H11.2c-2.8,0-4.2-0.7-4.2-4.5V11.7C7,7.4,8.9,7,11.2,7
						h249.5c2.3,0,4.2,0.4,4.2,4.8V185.4z"/>
				</g>
			</g>
			<g>
				<path class="st1" d="M6.7,98.4c0,0.9-0.8,1.7-1.7,1.7s-1.7-0.8-1.7-1.7s0.8-1.7,1.7-1.7S6.7,97.5,6.7,98.4z"/>
				
					<radialGradient id="SVGID_1_" cx="-1472.92" cy="-469.19" r="1.96" gradientTransform="matrix(1 0 0 -1 1477.71 -370.94)" gradientUnits="userSpaceOnUse">
					<stop  offset="0" style="stop-color:#000000"/>
					<stop  offset="0.28" style="stop-color:#080808"/>
					<stop  offset="0.54" style="stop-color:#151515"/>
					<stop  offset="0.62" style="stop-color:#181818"/>
					<stop  offset="0.7" style="stop-color:#242122"/>
					<stop  offset="0.72" style="stop-color:#292627"/>
					<stop  offset="0.78" style="stop-color:#403D3E"/>
					<stop  offset="0.9" style="stop-color:#7C7A7B"/>
					<stop  offset="1" style="stop-color:#B3B3B3"/>
				</radialGradient>
				<path class="st2" d="M6.6,98.4c0,0.9-0.7,1.6-1.6,1.6s-1.6-0.7-1.6-1.6s0.7-1.6,1.6-1.6S6.6,97.6,6.6,98.4z"/>
			</g>
		</g>
	</g>
</g>
</svg>
