<?xml version="1.0" encoding="UTF-8"?>
<svg id="Layer_1" data-name="Layer 1" xmlns="http://www.w3.org/2000/svg" version="1.1" viewBox="0 0 842.551 133.103">
  <defs>
    <style>
      .cls-1 {
        fill: #fff;
        stroke-width: 0px;
      }
    </style>
  </defs>
  <g>
    <path class="cls-1" d="M235.937,66.07c-1.522-1.187-3.199-2.172-5.029-2.956s-3.661-1.429-5.491-1.934l-6.052-1.736c-1.382-.393-2.75-.878-4.104-1.457-1.354-.579-2.587-1.275-3.698-2.088-1.111-.812-1.994-1.788-2.648-2.928-.654-1.139-.98-2.466-.98-3.979,0-2.055.574-3.89,1.723-5.506,1.149-1.615,2.736-2.881,4.763-3.796,2.026-.915,4.375-1.373,7.046-1.373,3.792,0,6.939.943,9.442,2.83s3.913,4.427,4.231,7.621h5.071c-.112-2.914-.976-5.516-2.591-7.804-1.616-2.287-3.796-4.086-6.542-5.394-2.746-1.307-5.902-1.961-9.47-1.961-3.53,0-6.71.658-9.54,1.976-2.83,1.316-5.071,3.147-6.725,5.491-1.653,2.345-2.479,5.058-2.479,8.14,0,3.68,1.242,6.705,3.727,9.077,2.484,2.372,5.977,4.23,10.479,5.576l6.864,2.017c2.372.691,4.459,1.485,6.262,2.382,1.802.896,3.208,2.003,4.217,3.32,1.008,1.316,1.513,2.946,1.513,4.889,0,2.298-.64,4.311-1.919,6.038-1.28,1.729-3.036,3.073-5.268,4.035s-4.777,1.442-7.635,1.442c-2.578,0-4.913-.406-7.004-1.219-2.092-.812-3.792-2.003-5.099-3.572-1.308-1.569-2.055-3.483-2.242-5.743h-5.379c.206,3.025,1.13,5.688,2.774,7.984,1.644,2.298,3.903,4.096,6.78,5.394,2.876,1.298,6.266,1.947,10.17,1.947,4.146,0,7.705-.714,10.675-2.144,2.97-1.429,5.249-3.366,6.836-5.813,1.587-2.446,2.381-5.201,2.381-8.265,0-2.392-.462-4.441-1.387-6.15-.925-1.709-2.148-3.156-3.67-4.343Z"/>
    <path class="cls-1" d="M274.144,51.053c-1.532-1.056-3.19-1.798-4.973-2.228-1.784-.43-3.498-.645-5.142-.645-2.185,0-4.343.313-6.472.938-2.129.626-4.053,1.644-5.771,3.054-1.719,1.411-3.063,3.292-4.035,5.646l4.735,1.71c.784-1.85,2.152-3.456,4.104-4.819,1.952-1.363,4.478-2.046,7.579-2.046,3.269,0,5.776.846,7.523,2.536,1.746,1.69,2.62,4.002,2.62,6.935v1.009c0,1.083-.439,1.867-1.317,2.354-.878.485-2.153.84-3.824,1.064-1.672.224-3.712.485-6.122.784-2.428.299-4.651.72-6.668,1.261-2.017.542-3.764,1.28-5.239,2.214-1.476.935-2.615,2.129-3.418,3.586-.803,1.457-1.205,3.25-1.205,5.38,0,2.765.635,5.113,1.905,7.046,1.27,1.934,2.979,3.409,5.127,4.428,2.148,1.018,4.52,1.526,7.117,1.526,2.391,0,4.473-.383,6.248-1.148,1.774-.766,3.25-1.746,4.427-2.942,1.177-1.194,2.063-2.428,2.662-3.698h.308v6.809h4.987v-29.223c0-2.876-.477-5.254-1.429-7.131s-2.195-3.343-3.726-4.398ZM274.312,75.302c0,2.354-.528,4.507-1.583,6.459-1.056,1.951-2.555,3.516-4.497,4.692-1.943,1.177-4.24,1.766-6.892,1.766-2.821,0-5.165-.715-7.033-2.144s-2.802-3.451-2.802-6.066c0-1.736.458-3.161,1.373-4.272.915-1.111,2.232-1.984,3.951-2.619,1.718-.635,3.792-1.103,6.22-1.401.896-.112,1.905-.243,3.026-.392,1.121-.15,2.246-.332,3.376-.547,1.13-.215,2.129-.463,2.998-.743.869-.279,1.489-.597,1.863-.952v6.22Z"/>
    <rect class="cls-1" x="288.606" y="34.424" width="4.987" height="57.381"/>
    <path class="cls-1" d="M332.053,53.35c-1.728-1.746-3.675-3.044-5.842-3.895-2.167-.85-4.417-1.274-6.752-1.274-3.717,0-6.99.957-9.82,2.872-2.83,1.915-5.043,4.558-6.641,7.929-1.597,3.372-2.396,7.225-2.396,11.558s.799,8.195,2.396,11.529c1.597,3.334,3.862,5.939,6.794,7.817,2.932,1.877,6.407,2.815,10.423,2.815,2.876,0,5.421-.462,7.635-1.387s4.062-2.152,5.547-3.685c1.485-1.531,2.554-3.203,3.208-5.015l-4.735-1.541c-.542,1.288-1.34,2.47-2.396,3.544-1.056,1.074-2.354,1.929-3.895,2.563-1.541.636-3.33.953-5.365.953-2.989,0-5.576-.701-7.761-2.102-2.185-1.401-3.871-3.376-5.057-5.926-1.113-2.392-1.683-5.181-1.752-8.336h32.025v-2.466c0-3.604-.504-6.729-1.513-9.371-1.008-2.644-2.377-4.838-4.104-6.585ZM305.685,67.373c.152-2.395.705-4.635,1.712-6.696,1.167-2.391,2.788-4.314,4.861-5.771,2.073-1.457,4.473-2.186,7.2-2.186,2.578,0,4.852.645,6.823,1.933,1.97,1.289,3.511,3.04,4.623,5.254,1.111,2.213,1.667,4.702,1.667,7.467h-26.887Z"/>
    <path class="cls-1" d="M363.396,68.83l-6.5-1.598c-2.671-.672-4.646-1.583-5.926-2.731s-1.919-2.647-1.919-4.497c0-2.186.934-3.969,2.802-5.352,1.868-1.382,4.259-2.073,7.172-2.073,1.942,0,3.572.309,4.889.925s2.386,1.448,3.208,2.494c.822,1.046,1.457,2.213,1.905,3.502l4.567-1.289c-1.046-3.119-2.75-5.57-5.113-7.354-2.363-1.783-5.515-2.676-9.456-2.676-2.896,0-5.473.514-7.733,1.541-2.26,1.027-4.035,2.442-5.323,4.245-1.289,1.803-1.933,3.89-1.933,6.262,0,2.877.896,5.286,2.689,7.229,1.793,1.942,4.557,3.362,8.293,4.259l7.032,1.682c2.354.56,4.109,1.434,5.268,2.619,1.158,1.187,1.737,2.647,1.737,4.385,0,2.241-.99,4.104-2.97,5.59-1.98,1.484-4.623,2.228-7.929,2.228-2.951,0-5.328-.654-7.13-1.962-1.803-1.307-3.012-3.24-3.628-5.8l-4.791,1.177c.766,3.587,2.512,6.328,5.239,8.224,2.727,1.896,6.192,2.844,10.395,2.844,3.156,0,5.935-.537,8.335-1.611,2.4-1.073,4.273-2.554,5.618-4.44s2.017-4.044,2.017-6.472c0-2.877-.901-5.268-2.704-7.173-1.803-1.905-4.506-3.297-8.111-4.175Z"/>
    <polygon class="cls-1" points="405.713 65.44 431.992 65.44 431.992 60.732 405.713 60.732 405.713 39.131 433.758 39.131 433.758 34.424 400.473 34.424 400.473 91.805 434.318 91.805 434.318 87.098 405.713 87.098 405.713 65.44"/>
    <path class="cls-1" d="M467.903,50.016c-2.195-1.204-4.74-1.807-7.635-1.807-3.157,0-5.805.668-7.943,2.003-2.139,1.336-3.712,3.105-4.721,5.31h-.448v-6.752h-4.848v43.035h4.987v-26.897c0-2.503.509-4.665,1.527-6.486,1.018-1.821,2.404-3.217,4.16-4.188,1.756-.971,3.764-1.457,6.024-1.457,3.306,0,5.943,1.027,7.915,3.082,1.97,2.055,2.955,4.848,2.955,8.378v27.569h4.987v-27.878c0-3.399-.611-6.267-1.835-8.602s-2.933-4.104-5.127-5.31Z"/>
    <path class="cls-1" d="M509.584,51.053c-1.531-1.056-3.189-1.798-4.973-2.228-1.784-.43-3.498-.645-5.142-.645-2.186,0-4.343.313-6.472.938-2.13.626-4.054,1.644-5.771,3.054-1.719,1.411-3.064,3.292-4.035,5.646l4.735,1.71c.784-1.85,2.152-3.456,4.104-4.819,1.951-1.363,4.478-2.046,7.579-2.046,3.269,0,5.775.846,7.522,2.536,1.746,1.69,2.619,4.002,2.619,6.935v1.009c0,1.083-.438,1.867-1.316,2.354-.878.485-2.153.84-3.824,1.064-1.672.224-3.713.485-6.122.784-2.429.299-4.651.72-6.668,1.261-2.018.542-3.765,1.28-5.239,2.214-1.477.935-2.615,2.129-3.419,3.586-.803,1.457-1.204,3.25-1.204,5.38,0,2.765.635,5.113,1.905,7.046,1.27,1.934,2.979,3.409,5.127,4.428,2.147,1.018,4.521,1.526,7.116,1.526,2.391,0,4.474-.383,6.248-1.148s3.25-1.746,4.427-2.942c1.177-1.194,2.064-2.428,2.662-3.698h.308v6.809h4.987v-29.223c0-2.876-.476-5.254-1.429-7.131-.952-1.877-2.195-3.343-3.727-4.398ZM509.752,75.302c0,2.354-.527,4.507-1.583,6.459-1.055,1.951-2.554,3.516-4.496,4.692-1.943,1.177-4.24,1.766-6.893,1.766-2.82,0-5.165-.715-7.032-2.144-1.868-1.429-2.802-3.451-2.802-6.066,0-1.736.457-3.161,1.372-4.272s2.232-1.984,3.951-2.619c1.718-.635,3.791-1.103,6.22-1.401.896-.112,1.905-.243,3.026-.392,1.12-.15,2.245-.332,3.376-.547,1.13-.215,2.129-.463,2.998-.743.868-.279,1.489-.597,1.862-.952v6.22Z"/>
    <path class="cls-1" d="M552.989,50.969c-2.671-1.858-5.771-2.788-9.302-2.788-2.634,0-4.814.462-6.542,1.387s-3.12,2.069-4.175,3.433c-1.056,1.363-1.863,2.689-2.424,3.979h-.448v-22.555h-5.015v57.381h4.847v-7.985h.616c.579,1.308,1.401,2.648,2.466,4.021,1.064,1.373,2.47,2.526,4.217,3.461,1.746.934,3.927,1.4,6.542,1.4,3.512,0,6.599-.934,9.26-2.802,2.662-1.867,4.735-4.474,6.221-7.817,1.484-3.343,2.227-7.237,2.227-11.684s-.747-8.307-2.241-11.641c-1.494-3.335-3.577-5.931-6.248-7.789ZM554.923,79.365c-1.027,2.689-2.531,4.823-4.511,6.401-1.98,1.579-4.399,2.368-7.257,2.368-2.783,0-5.151-.762-7.103-2.284-1.952-1.521-3.446-3.623-4.482-6.304-1.037-2.68-1.556-5.758-1.556-9.232,0-3.437.514-6.477,1.541-9.119,1.027-2.644,2.517-4.717,4.469-6.221,1.952-1.503,4.329-2.255,7.131-2.255,2.876,0,5.305.78,7.284,2.339,1.98,1.561,3.479,3.666,4.497,6.318,1.018,2.652,1.527,5.632,1.527,8.938,0,3.345-.514,6.36-1.541,9.051Z"/>
    <rect class="cls-1" x="568.488" y="34.424" width="4.987" height="57.381"/>
    <path class="cls-1" d="M611.935,53.35c-1.728-1.746-3.675-3.044-5.841-3.895-2.167-.85-4.418-1.274-6.753-1.274-3.717,0-6.99.957-9.82,2.872-2.829,1.915-5.043,4.558-6.64,7.929-1.598,3.372-2.396,7.225-2.396,11.558s.798,8.195,2.396,11.529c1.597,3.334,3.861,5.939,6.794,7.817,2.933,1.877,6.406,2.815,10.423,2.815,2.876,0,5.421-.462,7.635-1.387,2.213-.925,4.062-2.152,5.548-3.685,1.484-1.531,2.554-3.203,3.208-5.015l-4.735-1.541c-.542,1.288-1.341,2.47-2.396,3.544-1.056,1.074-2.354,1.929-3.895,2.563-1.541.636-3.33.953-5.365.953-2.989,0-5.576-.701-7.761-2.102-2.186-1.401-3.872-3.376-5.058-5.926-1.113-2.392-1.683-5.181-1.752-8.336h32.025v-2.466c0-3.604-.505-6.729-1.513-9.371-1.009-2.644-2.378-4.838-4.105-6.585ZM585.567,67.373c.152-2.395.705-4.635,1.712-6.696,1.167-2.391,2.788-4.314,4.861-5.771s4.473-2.186,7.2-2.186c2.578,0,4.852.645,6.822,1.933,1.971,1.289,3.512,3.04,4.623,5.254,1.111,2.213,1.667,4.702,1.667,7.467h-26.886Z"/>
    <path class="cls-1" d="M666.141,48.209c-3.139,0-5.805.705-8,2.115-2.194,1.41-3.777,3.311-4.749,5.701h-.363c-.953-2.428-2.387-4.338-4.301-5.729-1.915-1.392-4.357-2.087-7.327-2.087-2.82,0-5.235.64-7.242,1.919-2.009,1.279-3.442,3.03-4.301,5.253h-.448v-6.611h-4.848v43.035h4.987v-27.569c0-2.242.453-4.227,1.359-5.954.905-1.728,2.147-3.077,3.726-4.049,1.578-.971,3.357-1.457,5.338-1.457,2.951,0,5.239.896,6.864,2.689,1.625,1.794,2.438,4.147,2.438,7.061v29.279h5.1v-28.326c0-3.101.887-5.66,2.661-7.677,1.774-2.018,4.306-3.026,7.593-3.026,2.839,0,5.128.851,6.864,2.55,1.737,1.7,2.606,4.25,2.606,7.648v28.831h4.986v-28.831c0-4.818-1.158-8.484-3.474-10.996-2.316-2.513-5.474-3.769-9.47-3.769Z"/>
    <path class="cls-1" d="M717.543,53.35c-1.728-1.746-3.675-3.044-5.841-3.895-2.167-.85-4.418-1.274-6.753-1.274-3.717,0-6.99.957-9.82,2.872-2.829,1.915-5.043,4.558-6.64,7.929-1.598,3.372-2.396,7.225-2.396,11.558s.798,8.195,2.396,11.529c1.597,3.334,3.861,5.939,6.794,7.817,2.933,1.877,6.406,2.815,10.423,2.815,2.876,0,5.421-.462,7.635-1.387,2.213-.925,4.062-2.152,5.548-3.685,1.484-1.531,2.554-3.203,3.208-5.015l-4.735-1.541c-.542,1.288-1.341,2.47-2.396,3.544-1.056,1.074-2.354,1.929-3.895,2.563-1.541.636-3.33.953-5.365.953-2.989,0-5.576-.701-7.761-2.102-2.186-1.401-3.872-3.376-5.058-5.926-1.113-2.392-1.683-5.181-1.752-8.336h32.025v-2.466c0-3.604-.505-6.729-1.513-9.371-1.009-2.644-2.378-4.838-4.105-6.585ZM691.175,67.373c.152-2.395.705-4.635,1.712-6.696,1.167-2.391,2.788-4.314,4.861-5.771s4.473-2.186,7.2-2.186c2.578,0,4.852.645,6.822,1.933,1.971,1.289,3.512,3.04,4.623,5.254,1.111,2.213,1.667,4.702,1.667,7.467h-26.886Z"/>
    <path class="cls-1" d="M755.765,50.016c-2.195-1.204-4.74-1.807-7.635-1.807-3.157,0-5.805.668-7.943,2.003-2.139,1.336-3.712,3.105-4.721,5.31h-.448v-6.752h-4.848v43.035h4.987v-26.897c0-2.503.509-4.665,1.527-6.486,1.018-1.821,2.404-3.217,4.16-4.188,1.756-.971,3.764-1.457,6.024-1.457,3.306,0,5.943,1.027,7.915,3.082,1.97,2.055,2.955,4.848,2.955,8.378v27.569h4.987v-27.878c0-3.399-.611-6.267-1.835-8.602s-2.933-4.104-5.127-5.31Z"/>
    <path class="cls-1" d="M789.209,87.182c-.354.094-.766.183-1.232.267s-1.027.126-1.681.126c-1.121,0-2.177-.21-3.166-.631-.99-.42-1.794-1.139-2.41-2.157-.616-1.018-.925-2.424-.925-4.217v-27.457h9.106v-4.343h-9.106v-10.311h-5.015v10.311h-6.416v4.343h6.416v28.634c0,2.354.541,4.324,1.625,5.912,1.083,1.588,2.47,2.783,4.16,3.586s3.451,1.205,5.282,1.205c1.046,0,1.923-.08,2.633-.238.71-.159,1.308-.332,1.794-.519l-1.065-4.511Z"/>
  </g>
  <g id="Qlik_Logo-1c-White" data-name="Qlik Logo-1c-White">
    <rect class="cls-1" x="116.897" y="34.395" width="5.978" height="57.207"/>
    <g>
      <rect class="cls-1" x="133.143" y="51.637" width="5.957" height="39.965"/>
      <circle class="cls-1" cx="136.172" cy="38.473" r="4.072"/>
    </g>
    <polygon class="cls-1" points="180.949 51.637 172.653 51.637 155.454 66.713 155.411 34.395 149.454 34.395 149.454 91.601 155.411 91.601 155.411 73.146 173.086 91.601 181.36 91.601 160.284 70.222 180.949 51.637"/>
    <path class="cls-1" d="M76.435,86.988c-13.192,0-23.87-10.679-23.87-23.87,0-5.61,1.928-10.744,5.155-14.816l-4.354-4.419c-4.354,5.22-6.975,11.914-6.975,19.235,0,16.592,13.451,30.044,30.044,30.044,7.191,0,13.776-2.534,18.953-6.737l-4.354-4.419c-4.051,3.119-9.098,4.982-14.6,4.982Z"/>
    <path class="cls-1" d="M76.435,34.156c7.733,0,15.011,3.011,20.47,8.491,5.459,5.459,8.491,12.737,8.491,20.47,0,3.357-.563,6.628-1.69,9.747-1.083,3.011-2.643,5.783-4.635,8.296l-.303.303-.736.758.758.758,7.451,7.538h-5.22l-4.852-4.874-3.531-3.574c1.256-1.061,2.404-2.274,3.422-3.574,3.487-4.441,5.329-9.769,5.329-15.401,0-6.672-2.599-12.932-7.3-17.654-4.722-4.722-10.982-7.3-17.654-7.3-5.545,0-10.787,1.776-15.163,5.134-1.321.996-2.513,2.144-3.617,3.379l-2.816-2.859c1.04-1.17,2.188-2.253,3.401-3.249,2.513-2.036,5.35-3.639,8.383-4.722,3.141-1.083,6.433-1.668,9.812-1.668M76.435,33.073c-7.148,0-13.711,2.491-18.867,6.672-1.495,1.213-2.859,2.534-4.094,4.007-.043.043-.065.087-.108.13l4.354,4.419c.043-.043.065-.087.108-.152,1.191-1.495,2.578-2.816,4.094-3.986,4.029-3.076,9.054-4.917,14.513-4.917,13.192,0,23.87,10.679,23.87,23.87,0,5.567-1.906,10.679-5.09,14.729-1.148,1.473-2.469,2.794-3.942,3.964-.087.065-.152.108-.238.173l4.354,4.419,5.134,5.199h8.275l-9.271-9.379.347-.347c4.116-5.134,6.585-11.675,6.585-18.78.022-16.571-13.43-30.022-30.022-30.022h0Z"/>
    <path class="cls-1" d="M187.014,92.121c-.39,0-.758-.065-1.105-.217s-.65-.347-.91-.607-.455-.563-.607-.91-.217-.715-.217-1.105.065-.758.217-1.105.347-.65.607-.91.563-.455.91-.607c.347-.152.715-.217,1.105-.217s.758.065,1.105.217.65.347.91.607.455.563.607.91.217.715.217,1.105-.065.758-.217,1.105-.347.65-.607.91-.563.455-.91.607c-.347.152-.715.217-1.105.217ZM187.014,91.601c.433,0,.801-.108,1.148-.303.347-.217.628-.477.823-.823s.303-.736.303-1.148-.108-.801-.303-1.148-.477-.628-.823-.823c-.347-.217-.736-.303-1.148-.303-.433,0-.801.108-1.148.303-.347.217-.628.477-.823.823s-.303.736-.303,1.148.108.801.303,1.148.477.628.823.823.736.303,1.148.303ZM186.061,90.562v-2.599h1.256c.13,0,.26.022.39.087s.217.152.303.282c.087.13.13.26.13.455,0,.173-.043.325-.13.455-.087.13-.195.217-.325.303s-.26.108-.39.108h-.975v-.347h.845c.13,0,.238-.043.325-.13s.152-.217.152-.368c0-.173-.043-.282-.152-.347s-.195-.108-.303-.108h-.65v2.253h-.477v-.043ZM187.577,89.349l.65,1.213h-.498l-.628-1.213h.477Z"/>
  </g>
</svg>